HIERARCHY
ROOT Hips
{
 OFFSET 0.000000 0.000000 0.000000
 CHANNELS 6 Xposition Yposition Zposition Yrotation Xrotation Zrotation
 JOINT Chest
 {
  OFFSET 0.000000 9.585900 0.002600
  CHANNELS 3 Yrotation Xrotation Zrotation
  JOINT Chest2
  {
   OFFSET 0.000000 9.601200 -0.005300
   CHANNELS 3 Yrotation Xrotation Zrotation
   JOINT Chest3
   {
    OFFSET 0.000000 9.561800 0.000000
    CHANNELS 3 Yrotation Xrotation Zrotation
    JOINT Chest4
    {
     OFFSET 0.000000 9.552100 0.000000
     CHANNELS 3 Yrotation Xrotation Zrotation
     JOINT Neck
     {
      OFFSET 0.000000 14.453000 0.000000
      CHANNELS 3 Yrotation Xrotation Zrotation
      JOINT Head
      {
       OFFSET 0.000000 8.936500 -0.011300
       CHANNELS 3 Yrotation Xrotation Zrotation
       End Site
       {
        OFFSET 0.000000 17.073600 -0.006000
       }
      }
     }
     JOINT RightCollar
     {
      OFFSET -2.921100 9.558500 0.000000
      CHANNELS 3 Yrotation Xrotation Zrotation
      JOINT RightShoulder
      {
       OFFSET -13.519700 0.000000 0.000000
       CHANNELS 3 Yrotation Xrotation Zrotation
       JOINT RightElbow
       {
        OFFSET 0.000000 -29.696600 0.000000
        CHANNELS 3 Yrotation Xrotation Zrotation
        JOINT RightWrist
        {
         OFFSET 0.000000 -24.004700 0.000000
         CHANNELS 3 Yrotation Xrotation Zrotation
         End Site
         {
          OFFSET 0.000000 -17.728500 0.000000
         }
        }
       }
      }
     }
     JOINT LeftCollar
     {
      OFFSET 2.921100 9.558500 0.000000
      CHANNELS 3 Yrotation Xrotation Zrotation
      JOINT LeftShoulder
      {
       OFFSET 13.519700 0.000000 0.000000
       CHANNELS 3 Yrotation Xrotation Zrotation
       JOINT LeftElbow
       {
        OFFSET 0.000000 -29.696600 0.000000
        CHANNELS 3 Yrotation Xrotation Zrotation
        JOINT LeftWrist
        {
         OFFSET 0.000000 -24.004700 0.000000
         CHANNELS 3 Yrotation Xrotation Zrotation
         End Site
         {
          OFFSET 0.000000 -17.728500 0.000000
         }
        }
       }
      }
     }
    }
   }
  }
 }
 JOINT RightHip
 {
  OFFSET -7.771700 -0.012900 -0.001300
  CHANNELS 3 Yrotation Xrotation Zrotation
  JOINT RightKnee
  {
   OFFSET 0.000000 -40.869800 0.001200
   CHANNELS 3 Yrotation Xrotation Zrotation
   JOINT RightAnkle
   {
    OFFSET 0.000000 -39.717900 0.002100
    CHANNELS 3 Yrotation Xrotation Zrotation
    JOINT RightToe
    {
     OFFSET 0.000000 -4.965400 11.033500
     CHANNELS 3 Yrotation Xrotation Zrotation
     End Site
     {
      OFFSET 0.000000 -1.423100 5.872300
     }
    }
   }
  }
 }
 JOINT LeftHip
 {
  OFFSET 7.771700 -0.012900 -0.001300
  CHANNELS 3 Yrotation Xrotation Zrotation
  JOINT LeftKnee
  {
   OFFSET 0.000000 -40.869800 0.001200
   CHANNELS 3 Yrotation Xrotation Zrotation
   JOINT LeftAnkle
   {
    OFFSET 0.000000 -39.717900 0.002100
    CHANNELS 3 Yrotation Xrotation Zrotation
    JOINT LeftToe
    {
     OFFSET 0.000000 -4.965400 11.033500
     CHANNELS 3 Yrotation Xrotation Zrotation
     End Site
     {
      OFFSET 0.000000 -1.423100 5.872300
     }
    }
   }
  }
 }
}
MOTION
Frames: 16
Frame Time: 0.008333
9.302882 48.770326 47.942038 173.355415 -34.866972 -6.140442 6.675838 19.156988 6.419923 0.730785 2.571674 0.719213 1.218757 4.144029 1.161182 5.532293 16.468550 5.321784 -3.040755 17.076238 1.050154 -5.978446 -3.971642 2.976620 -0.017453 0.007798 -2.574746 1.388981 -3.456326 2.074175 71.022599 -71.523548 -86.585732 3.438133 -3.228256 0.771505 -8.812791 -1.257494 -0.208029 1.138060 -4.620069 -3.156212 -80.915960 -74.024343 101.610072 16.260062 -10.103393 -13.912751 6.370587 -46.638503 7.927302 -101.572026 84.939555 -90.364178 -3.963992 -9.121496 -0.385574 -0.023556 0.475602 -0.671826 -8.572271 -49.880933 14.169351 -153.278138 80.411435 -160.036101 1.062493 -17.094905 7.442752 0.010454 -0.017970 0.120570
9.314979 48.759509 47.945014 173.392524 -34.857762 -6.160570 6.640400 19.182965 6.436092 0.731148 2.566459 0.715719 1.210029 4.151327 1.169112 5.503464 16.467470 5.335219 -3.027953 17.084182 1.043335 -5.952126 -3.957922 2.959304 -0.006685 0.007652 -2.583126 1.355458 -3.441305 2.083611 71.033827 -71.481942 -86.614461 3.505994 -3.119807 0.871043 -8.815630 -1.259320 -0.179282 1.152986 -4.626101 -3.185718 -80.892553 -73.978695 101.624618 16.250989 -10.148841 -13.956422 6.030337 -46.395309 8.079294 -100.636926 85.036601 -89.503059 -3.966143 -9.662954 -0.498496 -0.019796 0.694357 -0.561629 -8.699897 -49.899794 14.258203 -153.193180 80.388104 -160.000959 1.062951 -17.080172 7.423986 0.010297 -0.023038 0.108742
9.328977 48.750843 47.947419 173.461052 -34.848339 -6.214125 6.597802 19.245294 6.483189 0.726990 2.508038 0.690849 1.205327 4.159507 1.175074 5.476903 16.482876 5.358128 -3.012318 17.092354 1.042731 -5.922755 -3.943581 2.952474 0.011267 -0.008179 -2.606660 1.320679 -3.429013 2.108700 70.974758 -71.454975 -86.585305 3.560721 -3.043567 0.943099 -8.818877 -1.270009 -0.171708 1.165327 -4.617725 -3.190213 -80.986308 -73.901237 101.683237 16.240571 -10.168692 -13.945501 5.589979 -46.173604 8.295213 -99.642140 85.236170 -88.596373 -4.057608 -10.128568 -0.707098 0.008074 0.832689 -0.419340 -8.850660 -49.911732 14.347775 -153.131954 80.374147 -159.971597 1.063506 -17.047568 7.398423 0.020077 -0.041645 0.081398
9.341987 48.740054 47.958256 173.555191 -34.771478 -6.290813 6.528736 19.214198 6.517687 0.716612 2.505806 0.691611 1.203344 4.140015 1.167855 5.455184 16.499273 5.375448 -2.994560 17.101927 1.048968 -5.891633 -3.926406 2.957475 0.004934 -0.004680 -2.595870 1.333681 -3.453865 2.081147 70.821532 -71.457840 -86.488807 3.600795 -2.994087 0.994594 -8.816768 -1.289415 -0.177587 1.148885 -4.560493 -3.139997 -81.245698 -73.891294 101.911051 16.184427 -10.163734 -13.949541 5.072145 -46.062709 8.552328 -98.700712 85.462520 -87.778974 -4.174559 -10.462152 -0.934741 0.044309 0.871950 -0.287168 -9.033373 -49.997330 14.447069 -153.158445 80.367857 -160.014798 1.081717 -17.031199 7.359838 0.003908 -0.038055 0.093300
9.356280 48.740808 47.963055 173.592058 -34.743344 -6.351704 6.512702 19.195045 6.562100 0.723414 2.556875 0.713215 1.193331 4.115227 1.161328 5.428347 16.497895 5.375123 -2.975779 17.113329 1.060114 -5.860145 -3.905565 2.971028 -0.004872 0.000270 -2.584133 1.312247 -3.456727 2.095894 70.803014 -71.447799 -86.500923 3.636087 -3.009324 1.049506 -8.826780 -1.298422 -0.178332 1.167163 -4.554716 -3.130387 -81.412977 -73.844973 102.017874 16.107179 -10.133164 -13.993137 4.587777 -45.977378 8.832903 -98.115980 85.632038 -87.333388 -4.269613 -10.658897 -1.130021 0.089530 0.829017 -0.184293 -9.151740 -50.027321 14.542113 -153.168506 80.357185 -160.033322 1.123532 -17.001577 7.308043 -0.022443 -0.064723 0.101533
9.361626 48.746654 47.974236 173.598869 -34.660073 -6.364362 6.512247 19.158853 6.581858 0.716588 2.531671 0.705063 1.188275 4.133057 1.169571 5.413431 16.489626 5.375451 -2.964960 17.105327 1.054840 -5.825047 -3.858967 3.003911 -0.015730 0.002594 -2.579789 1.304902 -3.464466 2.101067 70.725487 -71.464421 -86.473492 3.674422 -3.026699 1.103919 -8.850834 -1.295509 -0.177772 1.197827 -4.569011 -3.129465 -81.564899 -73.791011 102.097114 16.010941 -10.074663 -14.082680 4.219098 -46.032935 9.005547 -98.387126 85.685056 -87.712927 -4.256840 -10.696153 -1.276188 0.092399 0.712388 -0.133531 -9.210384 -50.114989 14.585571 -153.273628 80.367672 -160.136222 1.128062 -16.973130 7.279074 -0.017131 -0.073499 0.073611
9.362237 48.767234 47.984390 173.585445 -34.580636 -6.358561 6.528131 19.161992 6.614668 0.714510 2.490706 0.688187 1.179982 4.160512 1.185349 5.399144 16.449963 5.351517 -2.957433 17.099619 1.052735 -5.788533 -3.811345 3.036986 -0.031400 0.010302 -2.576300 1.262411 -3.451006 2.145416 70.780237 -71.465203 -86.549129 3.694431 -3.004863 1.142831 -8.870433 -1.292626 -0.185474 1.220142 -4.567379 -3.094182 -81.768849 -73.761290 102.217848 15.897624 -9.988708 -14.222285 3.988151 -46.165358 9.071133 -99.513916 85.620892 -88.888280 -4.107048 -10.608827 -1.377942 0.070240 0.511378 -0.105677 -9.229428 -50.187884 14.605165 -153.435612 80.394227 -160.289418 1.106444 -16.941852 7.259372 -0.018123 -0.088601 0.061835
9.360338 48.806555 47.991379 173.566022 -34.522057 -6.356151 6.539144 19.127575 6.627295 0.714427 2.502313 0.694568 1.179071 4.138878 1.175008 5.396392 16.453810 5.355463 -2.941122 17.122007 1.075939 -5.756655 -3.785750 3.053756 -0.046911 0.029916 -2.568274 1.239045 -3.458682 2.166814 70.741827 -71.491904 -86.551805 3.702261 -2.980478 1.182638 -8.888305 -1.276392 -0.187363 1.246492 -4.572624 -3.059698 -81.972874 -73.727845 102.345668 15.771632 -9.877647 -14.425683 3.902801 -46.327833 9.036987 -101.049589 85.481313 -90.397598 -3.868131 -10.470861 -1.412737 0.045092 0.296383 -0.119732 -9.234921 -50.225401 14.625838 -153.569722 80.431514 -160.416778 1.074897 -16.899868 7.246840 -0.010717 -0.115081 0.051654
9.360932 48.864138 47.996608 173.565968 -34.477101 -6.401020 6.547932 19.086156 6.672246 0.711548 2.525078 0.704102 1.180213 4.122727 1.168069 5.395754 16.446241 5.351197 -2.905933 17.192495 1.135276 -5.738958 -3.799316 3.048306 -0.060509 0.063772 -2.552318 1.178617 -3.435109 2.228680 70.870230 -71.504492 -86.695559 3.684551 -2.862224 1.252266 -8.902738 -1.244893 -0.177783 1.288982 -4.576920 -2.999356 -82.127421 -73.765729 102.446820 15.595886 -9.764315 -14.706447 3.906495 -46.491532 8.958129 -102.569996 85.321311 -91.813452 -3.619942 -10.367100 -1.386508 0.033272 0.180679 -0.196032 -9.292333 -50.234909 14.686029 -153.680836 80.478108 -160.517930 1.086737 -16.813568 7.221811 -0.025763 -0.185466 0.040767
9.362379 48.935107 48.001618 173.581233 -34.430360 -6.477231 6.543063 19.059127 6.743493 0.704586 2.544916 0.708225 1.179673 4.123814 1.170199 5.397562 16.425789 5.343866 -2.883395 17.207933 1.146334 -5.708385 -3.771705 3.065800 -0.054893 0.062578 -2.561236 1.107687 -3.384034 2.304224 71.030422 -71.527736 -86.870333 3.695506 -2.775536 1.365036 -8.898789 -1.241108 -0.180326 1.313055 -4.593670 -2.977558 -82.291271 -73.690885 102.524359 15.456634 -9.616808 -14.959384 3.968603 -46.637434 8.854843 -103.767227 85.184929 -92.853592 -3.372785 -10.358838 -1.376080 -0.095919 0.167909 -0.188126 -9.397017 -50.243747 14.774315 -153.876775 80.527581 -160.701851 1.122445 -16.695114 7.189557 -0.058478 -0.288985 0.023591
9.369590 49.016437 48.004158 173.614507 -34.400453 -6.606440 6.544309 19.040168 6.858826 0.705727 2.546804 0.704651 1.180184 4.126590 1.172299 5.397796 16.423001 5.353635 -2.868017 17.228395 1.156807 -5.682350 -3.746197 3.085696 -0.053589 0.061084 -2.569754 1.049494 -3.343469 2.359128 71.126949 -71.581227 -86.992104 3.728492 -2.702639 1.507600 -8.894989 -1.255048 -0.189526 1.332261 -4.591573 -2.949819 -82.434574 -73.607377 102.592343 15.325763 -9.470158 -15.246923 3.977874 -46.735332 8.831472 -104.552493 85.087255 -93.481051 -3.192208 -10.398040 -1.367311 -0.157830 0.229910 -0.185519 -9.551526 -50.224580 14.934019 -153.990398 80.570808 -160.806640 1.167792 -16.564719 7.150345 -0.100312 -0.407121 0.020707
9.381604 49.105063 47.999300 173.673324 -34.417109 -6.775093 6.540544 19.090483 6.995741 0.712401 2.531529 0.708512 1.181401 4.132525 1.175206 5.396862 16.461031 5.374039 -2.851410 17.209356 1.158865 -5.659483 -3.728296 3.106104 -0.052979 0.020440 -2.579321 0.996397 -3.318573 2.398030 71.216737 -71.658543 -87.102326 3.771253 -2.618686 1.679893 -8.888787 -1.294921 -0.187167 1.346400 -4.619770 -2.952480 -82.536598 -73.528695 102.635323 15.191812 -9.339468 -15.564263 3.873798 -46.759355 8.923109 -105.060016 85.036110 -93.891099 -3.122981 -10.407226 -1.260513 -0.164158 0.261596 -0.268367 -9.735440 -50.140340 15.126755 -154.219094 80.619606 -161.035702 1.189839 -16.468283 7.145444 -0.160011 -0.507765 -0.001797
9.389237 49.188753 47.994546 173.743498 -34.412964 -6.917254 6.518266 19.095473 7.101030 0.712903 2.534119 0.709581 1.182489 4.149406 1.176799 5.397822 16.454775 5.377596 -2.837786 17.251972 1.177355 -5.637707 -3.725034 3.125448 -0.065483 0.025608 -2.571796 0.951867 -3.303204 2.432511 71.285860 -71.755187 -87.187387 3.815076 -2.529508 1.873144 -8.891327 -1.294360 -0.166002 1.364264 -4.642364 -2.962800 -82.625604 -73.477783 102.673377 15.066593 -9.219676 -15.924089 3.728646 -46.773145 9.025679 -105.371266 85.001443 -94.126919 -3.156491 -10.451570 -1.257409 -0.075633 0.301477 -0.284161 -9.896702 -50.084747 15.274040 -154.316260 80.661056 -161.130724 1.198816 -16.392434 7.141636 -0.176109 -0.574619 -0.021903
9.406909 49.268517 47.987974 173.853101 -34.416367 -7.128121 6.483387 19.150712 7.248255 0.718032 2.496795 0.718133 1.183328 4.141822 1.178948 5.399097 16.554162 5.396111 -2.822456 17.227056 1.187007 -5.613391 -3.739010 3.143345 -0.081481 -0.046645 -2.571297 0.930129 -3.305400 2.452527 71.303236 -71.869437 -87.223185 3.854966 -2.440332 2.073385 -8.888010 -1.375340 -0.137949 1.393235 -4.662927 -2.971129 -82.748874 -73.466416 102.748584 14.968057 -9.090512 -16.342355 3.430200 -46.699712 9.216020 -105.104591 85.026881 -93.801821 -3.122875 -10.619809 -1.326436 -0.090696 0.463473 -0.244831 -10.164038 -50.028545 15.520911 -154.279645 80.671857 -161.104662 1.250412 -16.272225 7.140050 -0.209041 -0.683073 -0.052120
9.417866 49.338817 47.980029 173.937514 -34.409827 -7.268454 6.445849 19.217512 7.333524 0.716664 2.557607 0.716370 1.190345 4.149622 1.187914 5.401118 16.555168 5.403638 -2.803499 17.188813 1.197080 -5.584941 -3.766719 3.161645 -0.071703 -0.176743 -2.587957 0.904002 -3.288508 2.474111 71.264534 -72.003116 -87.206979 3.889683 -2.350913 2.276662 -8.883603 -1.484810 -0.113068 1.430326 -4.687452 -2.986207 -82.903767 -73.484694 102.862996 14.897368 -8.928965 -16.830202 3.126405 -46.634169 9.386222 -104.876931 85.076771 -93.584197 -3.113422 -10.733858 -1.413584 -0.134289 0.558924 -0.186246 -10.343370 -49.988164 15.681516 -154.223837 80.684706 -161.059946 1.263479 -16.200593 7.131339 -0.226624 -0.754261 -0.051308
9.423864 49.399618 47.971323 173.959649 -34.398012 -7.328162 6.441718 19.275869 7.374298 0.718545 2.570202 0.718901 1.191005 4.192505 1.191701 5.404273 16.567716 5.406465 -2.783379 17.170191 1.211994 -5.572145 -3.847828 3.164604 -0.088959 -0.261811 -2.603135 0.921922 -3.330169 2.479643 71.135710 -72.152576 -87.111579 3.918414 -2.257926 2.488539 -8.884239 -1.595610 -0.089411 1.489036 -4.683169 -3.030084 -83.186505 -73.546749 103.091874 14.836297 -8.718995 -17.401334 2.892881 -46.585232 9.507293 -104.740929 85.128987 -93.467705 -3.165498 -10.840270 -1.483822 -0.092544 0.630037 -0.164511 -10.412856 -49.961831 15.771687 -154.244186 80.697101 -161.101111 1.266536 -16.162356 7.140767 -0.256393 -0.803737 -0.055281
